# xmcd
#
# Track frame offsets: 
#        150
#        5963
#        15718
#        38205
#        55551
#        67969
#        80801
#        100000
#        110092
#        125869
#        139264
#        154365
#        174099
#        186377
#        195308
#        208318
#        222414
#        236363
#
# Disc length: 3289 seconds
#
# Revision: 0
# Processed by: cddbd v1.5.1PL0 Copyright (c) Steve Scherf et al.
# Submitted via: ExactAudioCopy v0.95a4
#
DISCID=080cd712
DTITLE=Van Morrison - The Skiffle Sessions
DYEAR=1998
DGENRE=Celtic
TTITLE0=Linin' Track
TTITLE1=New Burying Ground
TTITLE2=It Takes A Worried Man
TTITLE3=Lost John
TTITLE4=Going Home
TTITLE5=Good Morning Blues
TTITLE6=Outskirts Of Town
TTITLE7=Don't You Rock Me Daddio
TTITLE8=Sloop John B
TTITLE9=Midnight Special
TTITLE10=Dead Or Alive
TTITLE11=Frankie And Johnny
TTITLE12=Goodnight Irene
TTITLE13=Railroad Bill
TTITLE14=Gamblin' Man
TTITLE15=Muleskinner Blues
TTITLE16=The Ballad Of Jesse James
TTITLE17=Alabamy Bound
EXTD=
EXTT0=
EXTT1=
EXTT2=
EXTT3=
EXTT4=
EXTT5=
EXTT6=
EXTT7=
EXTT8=
EXTT9=
EXTT10=
EXTT11=
EXTT12=
EXTT13=
EXTT14=
EXTT15=
EXTT16=
EXTT17=
PLAYORDER=
